<?xml version="1.0" encoding="utf-8"?>
<!-- Generator: Adobe Illustrator 21.1.0, SVG Export Plug-In . SVG Version: 6.00 Build 0)  -->
<svg version="1.1" id="Layer_1" xmlns="http://www.w3.org/2000/svg" xmlns:xlink="http://www.w3.org/1999/xlink" x="0px" y="0px"
	 viewBox="0 0 26.8 35.4" style="enable-background:new 0 0 26.8 35.4;" xml:space="preserve">
<style type="text/css">
	.st0{fill:#FFFFFF;}
	.st1{fill:none;stroke:#FFFFFF;stroke-miterlimit:10;}
	.st2{fill:none;}
	.st3{opacity:0.75;fill:#FFFFFF;}
	.st4{opacity:0.32;}
</style>
<g>
	<path class="st0" d="M8.8,31.8c0,0,0.4,3.5,3.4,3.5c3.8,0,4.4-0.6,5.6-3.5C17.8,31.8,9.9,32.5,8.8,31.8z"/>
	<path class="st0" d="M8.8,31.8c0,0,0.4,3.5,3.4,3.5c3.8,0,4.4-0.6,5.6-3.5C17.8,31.8,9.9,32.5,8.8,31.8z"/>
	<path class="st1" d="M7.7,28.3c0,0,0.1-1.7-1.3-4.5c-1.2-2.2-7.1-4.8-5.6-13c0.8-4.8,4.9-8.6,9.7-9.8C14.8-0.2,22.7,0.3,25.7,9
		c2.8,8.1-3.8,12.7-5.9,15.1c-1.7,1.9-1.2,4.5-1.2,4.5S11.2,30.6,7.7,28.3z"/>
	<path class="st1" d="M13.5,20.5c-5.7-0.8-10.6-5.6-12-11.1C1.4,9.1,1.4,8.8,1.3,8.6C1.1,9.3,0.8,10,0.7,10.8
		c-1.4,8.2,4.5,10.8,5.6,13c1.4,2.7,1.3,4.5,1.3,4.5c3.5,2.3,10.9,0.4,10.9,0.4s-0.5-2.5,1.2-4.5c1.1-1.2,3.3-3,4.8-5.5
		C21.4,20.6,17.2,21,13.5,20.5z"/>
	<path class="st0" d="M8.8,31.8c0,0,0.1,0.7,0.4,1.5c0.6,0,3.8,0.7,7.7,0.5c0.2-0.4,0.7-1.4,0.9-2C17.8,31.8,9.9,32.5,8.8,31.8z"/>
	<path class="st0" d="M7,26.9c0,0,6,0.7,12.1,0c0,0,0.5,5.6-2.9,5.7c-2.1,0.1-4,0.1-5.2,0c-1.6,0-3.1-1.1-3.6-2.6
		C7.2,29.3,7,28.3,7,26.9z"/>
	<path class="st0" d="M8.1,30c0,0,7.7,1.5,10.4-0.3c0,0-0.8,3.1-9.4,1.4C8.5,31,8.1,30.6,8.1,30C8.1,30,8.1,30,8.1,30z"/>
	<path class="st1" d="M18.1,27.9c0,0-7.7,1.5-10.4-0.3c0,0,0.8,3.1,9.4,1.4C17.7,28.9,18.1,28.5,18.1,27.9
		C18.1,27.9,18.1,27.9,18.1,27.9z"/>
	<path class="st1" d="M8.1,30c0,0,7.7,1.5,10.4-0.3c0,0-0.8,3.1-9.4,1.4C8.5,31,8.1,30.6,8.1,30C8.1,30,8.1,30,8.1,30z"/>
	<path class="st2" d="M18.1,27.9c0,0-7.7,1.5-10.4-0.3c0,0,0.8,3.1,9.4,1.4C17.7,28.9,18.1,28.5,18.1,27.9
		C18.1,27.9,18.1,27.9,18.1,27.9z"/>
	<path class="st3" d="M22.5,9.7c-1.1,0.9-2.9,0.6-4-0.7c-1.1-1.3-1.1-3.1,0.1-4c1.1-0.9,2.9-0.6,4,0.7C23.7,7,23.6,8.8,22.5,9.7z"/>
	<g>
		<g>
			<path class="st1" d="M16.6,6.6c0,0-0.9,1.9-7.1,6c-3.2,2.1-2.9,5.4-0.7,8.1c1.6,1.9,2,2.6,2.6,4.7c0,0,10.2-2.5,7.5-10
				C17.2,10.1,16.6,8.5,16.6,6.6z"/>
			<path class="st4" d="M17,22c-4.4,0-8.2-2.8-9.7-6.7c-0.5,1.7,0.1,3.7,1.5,5.3c1.6,1.9,2,2.6,2.6,4.7c0,0,3.8-0.9,6.1-3.3
				C17.4,22,17.2,22,17,22z"/>
			<path class="st0" d="M17.7,18.9c0,0-1.3,1.2-3.6,1.5c0.1-0.6,0.1-1.3,0.1-2.2c0-0.4,0-0.7,0-1c0.2-0.5,1.6-1.3,2.4-1.7
				c0,0-1.5,0.3-2.4,0.9c0.1-3.3,0.5-4.8,0.5-4.8c0,0.1-0.8,1.3-1,4.3c-1-1.2-2-2.5-2-2.5c0,0.1,0.8,1.9,1.9,3.3c0,0.5,0,1,0,1.5
				c0,0.8,0,1.5-0.1,2.1c-1.2-0.6-4-4.1-4-4.1c0.4,0.7,2.4,4.2,3.9,4.7c-0.4,2.3-1.4,3.6-1.4,3.6c0.8-1,1.6-1.7,2-3.6
				C16.7,20.7,17.7,19,17.7,18.9z"/>
		</g>
	</g>
</g>
</svg>
