<?xml version="1.0" encoding="UTF-8" standalone="no"?>
<svg
   xmlns:dc="http://purl.org/dc/elements/1.1/"
   xmlns:cc="http://creativecommons.org/ns#"
   xmlns:rdf="http://www.w3.org/1999/02/22-rdf-syntax-ns#"
   xmlns:svg="http://www.w3.org/2000/svg"
   xmlns="http://www.w3.org/2000/svg"
   viewBox="0 0 42.252934 40.135868"
   height="40.135868"
   width="42.252934"
   xml:space="preserve"
   id="svg2"
   version="1.1"><metadata
     id="metadata8"><rdf:RDF><cc:Work
         rdf:about=""><dc:format>image/svg+xml</dc:format><dc:type
           rdf:resource="http://purl.org/dc/dcmitype/StillImage" /></cc:Work></rdf:RDF></metadata><defs
     id="defs6"><clipPath
       id="clipPath18"
       clipPathUnits="userSpaceOnUse"><path
         id="path16"
         d="M 0,30.102 H 31.69 V 0 H 0 Z" /></clipPath></defs><g
     transform="matrix(1.3333333,0,0,-1.3333333,0,40.135867)"
     id="g10"><g
       id="g12"><g
         clip-path="url(#clipPath18)"
         id="g14"><g
           transform="translate(3.9066,8.4959)"
           id="g20"><path
             id="path22"
             style="fill:#ffffff;fill-opacity:1;fill-rule:nonzero;stroke:none"
             d="m 0,0 c -2.129,2.225 -3.407,5.054 -3.407,8.138 0,7.162 6.87,12.968 15.344,12.968 8.477,0 15.346,-5.806 15.346,-12.968 0,-7.162 -6.869,-12.967 -15.346,-12.967 -2.173,0 -4.239,0.389 -6.115,1.077 l -7.977,-3.814 z" /></g><g
           transform="translate(3.9066,8.4959)"
           id="g24"><path
             id="path26"
             style="fill:none;stroke:#000000;stroke-width:1;stroke-linecap:butt;stroke-linejoin:miter;stroke-miterlimit:10;stroke-dasharray:none;stroke-opacity:1"
             d="m 0,0 c -2.129,2.225 -3.407,5.054 -3.407,8.138 0,7.162 6.87,12.968 15.344,12.968 8.477,0 15.346,-5.806 15.346,-12.968 0,-7.162 -6.869,-12.967 -15.346,-12.967 -2.173,0 -4.239,0.389 -6.115,1.077 l -7.977,-3.814 z" /></g><g
           transform="translate(13.7195,9.4939)"
           id="g28"><path
             id="path30"
             style="fill:#1f1e1f;fill-opacity:1;fill-rule:nonzero;stroke:none"
             d="M 0,0 C 0,0.402 0.122,0.719 0.369,0.95 0.615,1.18 0.945,1.295 1.359,1.295 1.788,1.295 2.131,1.18 2.385,0.95 2.639,0.719 2.766,0.402 2.766,0 2.766,-0.386 2.639,-0.7 2.385,-0.937 2.131,-1.175 1.788,-1.295 1.359,-1.295 c -0.414,0 -0.744,0.12 -0.99,0.358 C 0.122,-0.7 0,-0.386 0,0 M 0.476,2.925 C 0.461,3 0.453,3.082 0.453,3.17 v 0.247 c 0,0.625 0.099,1.175 0.297,1.651 0.2,0.476 0.446,0.911 0.74,1.307 0.295,0.395 0.612,0.762 0.955,1.105 0.342,0.342 0.659,0.687 0.953,1.038 0.295,0.35 0.541,0.721 0.74,1.117 0.199,0.394 0.298,0.844 0.298,1.35 0,0.685 -0.211,1.243 -0.632,1.675 -0.422,0.431 -1.125,0.647 -2.111,0.647 -0.572,0 -1.154,-0.093 -1.741,-0.278 -0.589,-0.188 -1.098,-0.407 -1.527,-0.659 l -0.644,1.384 c 0.605,0.341 1.24,0.613 1.908,0.814 0.669,0.201 1.496,0.302 2.481,0.302 0.699,0 1.315,-0.093 1.849,-0.278 C 4.552,14.404 4.997,14.148 5.355,13.821 5.712,13.492 5.979,13.106 6.154,12.66 6.329,12.213 6.416,11.737 6.416,11.231 6.416,10.562 6.309,9.978 6.094,9.478 5.878,8.979 5.609,8.525 5.283,8.116 4.957,7.707 4.606,7.323 4.233,6.967 3.86,6.609 3.509,6.233 3.184,5.839 2.858,5.443 2.587,5.016 2.373,4.555 2.158,4.094 2.051,3.551 2.051,2.925 Z" /></g></g></g></g></svg>