<?xml version="1.0" encoding="utf-8"?>
<!-- Generator: Adobe Illustrator 21.1.0, SVG Export Plug-In . SVG Version: 6.00 Build 0)  -->
<svg version="1.1" id="Layer_1" xmlns="http://www.w3.org/2000/svg" xmlns:xlink="http://www.w3.org/1999/xlink" x="0px" y="0px"
	 viewBox="0 0 20.9 27.9" style="enable-background:new 0 0 20.9 27.9;" xml:space="preserve">
<style type="text/css">
	.st0{fill:#FFFFFF;}
</style>
<g>
	<path class="st0" d="M10.1,21.4c0,0-0.1,0.1-0.1,0.1c0,0-0.1,0.1-0.1,0.1c-0.1,0.1-0.2,0.1-0.3,0.2l-2.1,4.2l-0.4-2.4l0.6-1
		c-0.1,0-0.1,0-0.2,0c-0.2,0-0.4,0.1-0.6,0.1c-0.1,0-0.2,0-0.3,0c-0.4,0-0.8-0.1-1.2-0.1l0.6,1l-0.4,2.5l-2.3-4.5
		c-0.1-0.1-0.2-0.2-0.3-0.3l0,0c-2.2,1.9-2.8,4.9-2.9,6.4h12.9C12.5,23.3,10.6,21.8,10.1,21.4z"/>
	<circle class="st0" cx="6.6" cy="17.6" r="4.9"/>
	<path class="st0" d="M20.6,24.6C20.6,24.6,20.6,24.6,20.6,24.6c0-0.1,0-0.2,0-0.2c0,0-0.8-0.4-1-1c0.3,0.3,0.6,0.4,1.1,0.5
		c0,0,0.1,0,0.1,0c0,0,0-0.1,0-0.1c-0.4-1-0.6-2.3-0.8-3.5c-0.1-0.7-0.2-1.4-0.4-2.1c-0.1-0.3-0.1-0.5-0.3-0.8
		c-0.1-0.3-0.3-0.6-0.4-0.8c-0.2-0.3-0.7-1-1.8-1.2c-0.4-0.1-0.8-0.2-1.2-0.2c-0.8,0-1.5,0.3-2.1,0.7c-0.6,0.3-1,0.9-1.3,1.6
		c-0.2,0.4-0.3,0.9-0.4,1.4c0,0.1,0,0.3,0,0.4c0,0.2-0.1,0.3-0.1,0.5c-0.1,0.8,0,1.8,0.1,2.8c0.6,1,1.3,2.7,1.5,5.1h7.4
		c-0.1-0.7-0.2-1.8-0.7-3C20.4,24.8,20.6,24.7,20.6,24.6z M18.3,24.1c-0.1,0.1-1.2,0.8-1.2,0.8l0.6,0.8l-1.8,1.4l0,0l0,0l0,0l0,0
		l-1.8-1.4l0.6-0.8c0,0-1.2-0.8-1.2-0.8c-0.1-0.1,0.5-0.7,0.5-0.7l1.9,3.7l1.9-3.7C17.8,23.3,18.4,23.9,18.3,24.1z"/>
	<path class="st0" d="M14.8,0H1.8C1.1,0,0.5,0.6,0.5,1.3v7c0,0.7,0.6,1.3,1.3,1.3H7l-0.2,2.2l1.9-2.2h6.1c0.7,0,1.3-0.6,1.3-1.3v-7
		C16.1,0.6,15.6,0,14.8,0z M8.9,6.2H2.4C2.3,6.2,2.2,6.1,2.2,6c0-0.1,0.1-0.2,0.2-0.2h6.5C9,5.8,9.1,5.9,9.1,6
		C9.1,6.1,9,6.2,8.9,6.2z M14.1,4.7H2.4c-0.1,0-0.2-0.1-0.2-0.2c0-0.1,0.1-0.2,0.2-0.2h11.7c0.1,0,0.2,0.1,0.2,0.2
		C14.3,4.6,14.2,4.7,14.1,4.7z M14.1,3.1H2.4C2.3,3.1,2.2,3,2.2,2.9c0-0.1,0.1-0.2,0.2-0.2h11.7c0.1,0,0.2,0.1,0.2,0.2
		C14.3,3,14.2,3.1,14.1,3.1z"/>
	<path class="st0" d="M19.7,6.2h-3v2.5c0,0.8-0.6,1.4-1.4,1.4h-3.9v1.7c0,0.4,0.4,0.8,0.8,0.8h4l1.2,1.4l-0.1-1.4h2.4
		c0.4,0,0.8-0.4,0.8-0.8V7.1C20.5,6.6,20.1,6.2,19.7,6.2z"/>
</g>
</svg>
