<?xml version="1.0" encoding="UTF-8" standalone="no"?>
<svg
   xmlns:dc="http://purl.org/dc/elements/1.1/"
   xmlns:cc="http://creativecommons.org/ns#"
   xmlns:rdf="http://www.w3.org/1999/02/22-rdf-syntax-ns#"
   xmlns:svg="http://www.w3.org/2000/svg"
   xmlns="http://www.w3.org/2000/svg"
   viewBox="0 0 37.439732 23.608801"
   height="23.608801"
   width="37.439732"
   xml:space="preserve"
   id="svg2"
   version="1.1"><metadata
     id="metadata8"><rdf:RDF><cc:Work
         rdf:about=""><dc:format>image/svg+xml</dc:format><dc:type
           rdf:resource="http://purl.org/dc/dcmitype/StillImage" /></cc:Work></rdf:RDF></metadata><defs
     id="defs6"><clipPath
       id="clipPath18"
       clipPathUnits="userSpaceOnUse"><path
         id="path16"
         d="M 0,17.707 H 28.08 V 0 H 0 Z" /></clipPath></defs><g
     transform="matrix(1.3333333,0,0,-1.3333333,0,23.6088)"
     id="g10"><g
       id="g12"><g
         clip-path="url(#clipPath18)"
         id="g14"><g
           transform="translate(6.1591,16.2747)"
           id="g20"><path
             id="path22"
             style="fill:#ffffff;fill-opacity:1;fill-rule:nonzero;stroke:none"
             d="m 0,0 c -2.512,0 -4.555,-2.043 -4.555,-4.555 0,-2.512 2.043,-4.555 4.555,-4.555 1.635,0 3.066,0.868 3.871,2.165 C 3.241,-5.92 2.425,-4.069 3.386,-1.519 2.551,-0.589 1.345,0 0,0" /></g><g
           transform="translate(9.2802,7.8001)"
           id="g24"><path
             id="path26"
             style="fill:#ffffff;fill-opacity:1;fill-rule:nonzero;stroke:none"
             d="m 0,0 c -0.056,-0.044 -0.124,-0.096 -0.2,-0.148 -0.446,-1.185 -1.586,-2.029 -2.926,-2.029 -1.352,0 -2.499,0.857 -2.938,2.056 -0.142,0.101 -0.25,0.187 -0.314,0.24 -0.023,0.021 -0.047,0.039 -0.069,0.06 L -6.486,0.145 C -9.322,-2.307 -9.283,-6.599 -9.28,-6.779 l 0.003,-0.153 h 7.214 c 0.11,1.663 0.602,4.621 2.588,6.81 C 0.381,0.01 0.26,0.103 0.181,0.156 0.142,0.12 0.101,0.085 0.06,0.05 Z" /></g><g
           transform="translate(16.7035,4.2698)"
           id="g28"><path
             id="path30"
             style="fill:#ffffff;fill-opacity:1;fill-rule:nonzero;stroke:none"
             d="M 0,0 -1.951,0.995 -3.903,0 V 2.416 L -1.951,1.373 0,2.416 Z M 1.932,3.844 C 1.886,3.803 1.839,3.763 1.792,3.723 1.77,3.703 1.747,3.685 1.724,3.666 1.278,3.312 0.254,2.645 -1.097,2.431 -1.231,2.412 -1.364,2.391 -1.501,2.383 -1.616,2.376 -1.731,2.371 -1.849,2.371 c -0.425,0 -0.838,0.05 -1.236,0.141 -1.258,0.32 -2.219,1.062 -2.493,1.291 -0.026,0.023 -0.054,0.044 -0.079,0.068 L -5.701,3.832 C -8.948,1.024 -8.903,-3.888 -8.899,-4.096 L -8.896,-4.27 H 4.996 L 4.989,-4.086 C 4.759,1.591 2.488,3.468 1.932,3.844" /></g><g
           transform="translate(9.663,12.4866)"
           id="g32"><path
             id="path34"
             style="fill:#ffffff;fill-opacity:1;fill-rule:nonzero;stroke:none"
             d="M 0,0 C 0.001,-2.876 2.342,-5.217 5.218,-5.217 H 5.22 c 1.392,0 2.701,0.544 3.688,1.531 0.986,0.987 1.53,2.297 1.529,3.689 0,2.876 -2.342,5.217 -5.219,5.217 C 2.34,5.219 0,2.877 0,0" /></g><g
           transform="translate(22.2221,1.1302)"
           id="g36"><path
             id="path38"
             style="fill:#ffffff;fill-opacity:1;fill-rule:nonzero;stroke:none"
             d="M 0,0 5.855,-0.001 5.857,0.136 C 5.86,0.299 5.804,3.942 3.257,6.146 L 3.222,6.177 C 3.14,6.101 3.055,6.027 2.967,5.957 L 1.155,2.431 0.834,4.5 1.35,5.334 C 1.021,5.255 0.678,5.212 0.325,5.212 0.233,5.212 0.143,5.216 0.052,5.222 -0.114,5.232 -0.277,5.252 -0.437,5.28 -0.5,5.291 -0.562,5.304 -0.624,5.317 L -0.116,4.5 -0.455,2.53 C -0.183,1.567 -0.058,0.638 0,0" /></g><g
           transform="translate(22.7221,6.9017)"
           id="g40"><path
             id="path42"
             style="fill:#ffffff;fill-opacity:1;fill-rule:nonzero;stroke:none"
             d="M 0,0 C 2.257,-0.001 4.094,1.835 4.094,4.091 4.095,6.348 2.26,8.185 0.002,8.186 -0.916,8.186 -1.766,7.881 -2.449,7.368 -2.236,6.783 -2.12,6.151 -2.12,5.493 -2.12,4.123 -2.625,2.871 -3.457,1.907 -2.73,0.763 -1.453,0 0,0" /></g></g></g></g></svg>