<?xml version="1.0" encoding="utf-8"?>
<!-- Generator: Adobe Illustrator 21.1.0, SVG Export Plug-In . SVG Version: 6.00 Build 0)  -->
<svg version="1.1" id="Layer_1" xmlns="http://www.w3.org/2000/svg" xmlns:xlink="http://www.w3.org/1999/xlink" x="0px" y="0px"
	 viewBox="0 0 23.1 22.6" style="enable-background:new 0 0 23.1 22.6;" xml:space="preserve">
<style type="text/css">
	.st0{fill:#FFFFFF;}
</style>
<g>
	<path class="st0" d="M4.7,11.3c0,3.7,3.1,6.7,6.9,6.7c3.8,0,6.9-3,6.9-6.7c0-3.7-3.1-6.7-6.9-6.7C7.8,4.6,4.7,7.6,4.7,11.3z
		 M16.4,10.9c0.2,2.6-1.7,4.9-4.4,5.1c-2.6,0.2-5-1.7-5.2-4.3c-0.2-2.6,1.7-4.9,4.4-5.1C13.8,6.4,16.1,8.3,16.4,10.9z"/>
	<path class="st0" d="M21,15l1.1,0c0.3,0,0.5-0.2,0.6-0.5l0.4-1.8c0-0.3-0.1-0.6-0.4-0.7l-1-0.5c-0.2-0.1-0.4-0.4-0.4-0.7
		c0,0,0-0.1,0-0.4c0-0.1,0-0.1,0-0.1c0-0.1,0.2-0.3,0.4-0.5l1-0.6c0.2-0.1,0.4-0.5,0.3-0.7l-0.6-1.7c-0.1-0.2-0.4-0.4-0.7-0.4
		l-1.1,0.1c-0.3,0-0.6-0.1-0.7-0.3c-0.1-0.2-0.4-0.9-0.2-1.1l0.5-1C20.2,4,20.2,3.6,20,3.4l-1.4-1.2c-0.2-0.2-0.6-0.2-0.8,0
		l-0.9,0.6C16.7,3,16.3,3,16.1,2.9c-0.2-0.1-0.8-0.6-0.8-0.8l0-1.1c0-0.3-0.2-0.5-0.5-0.6L13,0c-0.3,0-0.6,0.1-0.7,0.4l-0.5,1
		c-0.1,0.2-0.4,0.4-0.7,0.4c0,0-0.1,0-0.4,0c-0.1,0-0.1,0-0.1,0c-0.1,0-0.3-0.2-0.5-0.4L9.5,0.5C9.4,0.3,9.1,0.2,8.8,0.2L7.1,0.8
		C6.8,0.9,6.6,1.2,6.7,1.4l0.1,1.1c0,0.3-0.1,0.6-0.3,0.7C6.2,3.4,5.5,3.6,5.3,3.5L4.3,3C4.1,2.8,3.7,2.9,3.5,3.1L2.3,4.4
		C2.1,4.6,2.1,5,2.3,5.2l0.6,0.9C3.1,6.3,3.1,6.7,3,6.8C2.9,7,2.4,7.6,2.1,7.6L1,7.6c-0.3,0-0.5,0.2-0.6,0.5L0,9.9
		c0,0.3,0.1,0.6,0.4,0.7l1,0.5c0.2,0.1,0.4,0.4,0.4,0.7c0,0,0,0.1,0,0.4c0,0.1,0,0.1,0,0.1c0,0.1-0.2,0.3-0.4,0.5l-1,0.6
		c-0.2,0.1-0.4,0.5-0.3,0.7l0.6,1.7c0.1,0.2,0.4,0.4,0.7,0.4l1.1-0.1c0.3,0,0.6,0.1,0.7,0.3c0.1,0.2,0.4,0.9,0.2,1.1l-0.5,1
		C2.9,18.7,3,19,3.1,19.2l1.4,1.2c0.2,0.2,0.6,0.2,0.8,0l0.9-0.6c0.2-0.1,0.6-0.2,0.8-0.1c0.2,0.1,0.8,0.6,0.8,0.8l0,1.1
		c0,0.3,0.2,0.5,0.5,0.6l1.8,0.4c0.3,0,0.6-0.1,0.7-0.4l0.5-1c0.1-0.2,0.4-0.4,0.7-0.4c0,0,0.1,0,0.4,0c0.1,0,0.1,0,0.1,0
		c0.1,0,0.3,0.2,0.5,0.4l0.6,0.9c0.1,0.2,0.5,0.3,0.7,0.3l1.7-0.6c0.2-0.1,0.4-0.4,0.4-0.6l-0.1-1.1c0-0.3,0.1-0.6,0.3-0.7
		c0.2-0.1,0.9-0.4,1.1-0.2l1,0.5c0.2,0.1,0.6,0.1,0.8-0.1l1.2-1.3c0.2-0.2,0.2-0.5,0-0.8l-0.6-0.9c-0.1-0.2-0.2-0.6-0.1-0.7
		C20.3,15.6,20.7,15.1,21,15z M11.6,19c-4.3,0-7.8-3.4-7.8-7.7c0-4.2,3.5-7.7,7.8-7.7c4.3,0,7.8,3.4,7.8,7.7
		C19.4,15.6,15.9,19,11.6,19z"/>
</g>
</svg>
